# xmcd CD database file
# Copyright (C) 1996 Ti Kan
#
# Track frame offsets:
# 	150
# 	12307
# 	32320
# 	52940
# 	71100
# 	88582
# 	102540
# 	125392
# 	144320
# 	162245
# 	182290
# 	198175
# 	215780
#
# Disc length: 3134 seconds
#
# Revision: 1
# Processed by: cddbd v1.4b41PL1 Copyright (c) Steve Scherf et al.
# Submitted via: DiscPlay 3.2
#
DISCID=ab0c3c0d
DTITLE=4 p.m. - Now's the Time
DYEAR=1900
DGENRE=
TTITLE0=Sukiyaki
TTITLE1=Lay Down Your Love
TTITLE2=Forever In My Heart
TTITLE3=Gift of Perfect Love
TTITLE4=Yes
TTITLE5=In This Life
TTITLE6=Naturally
TTITLE7=For What More
TTITLE8=Father and Child
TTITLE9=Time (Clock of the Heart)
TTITLE10=Then Came You
TTITLE11=Glad You Said the Words
TTITLE12=Years From Here
EXTD=
EXTT0=
EXTT1=
EXTT2=
EXTT3=
EXTT4=
EXTT5=
EXTT6=
EXTT7=
EXTT8=
EXTT9=
EXTT10=
EXTT11=
EXTT12=
PLAYORDER=
